<svg width="110" height="47" viewBox="0 0 110 47" fill="none" xmlns="http://www.w3.org/2000/svg">
<path d="M38.5078 26.9492H34.9121L34.2285 29H32.0479L35.7529 19.0469H37.6533L41.3789 29H39.1982L38.5078 26.9492ZM35.4658 25.2881H37.9541L36.7031 21.5625L35.4658 25.2881ZM42.3086 29V19.0469H45.7949C47.0026 19.0469 47.9186 19.2793 48.543 19.7441C49.1673 20.2044 49.4795 20.8812 49.4795 21.7744C49.4795 22.262 49.3542 22.6927 49.1035 23.0664C48.8529 23.4355 48.5042 23.7067 48.0576 23.8799C48.568 24.0075 48.9691 24.265 49.2607 24.6523C49.557 25.0397 49.7051 25.5137 49.7051 26.0742C49.7051 27.0312 49.3997 27.7559 48.7891 28.248C48.1784 28.7402 47.3079 28.9909 46.1777 29H42.3086ZM44.3594 24.666V27.3525H46.1162C46.5993 27.3525 46.9753 27.2386 47.2441 27.0107C47.5176 26.7783 47.6543 26.4593 47.6543 26.0537C47.6543 25.1423 47.1826 24.6797 46.2393 24.666H44.3594ZM44.3594 23.2168H45.877C46.9115 23.1986 47.4287 22.7861 47.4287 21.9795C47.4287 21.5283 47.2965 21.2048 47.0322 21.0088C46.7725 20.8083 46.36 20.708 45.7949 20.708H44.3594V23.2168ZM59.4258 24.249C59.4258 25.2288 59.2526 26.0879 58.9062 26.8262C58.5599 27.5645 58.0632 28.1341 57.416 28.5352C56.7734 28.9362 56.0352 29.1367 55.2012 29.1367C54.3763 29.1367 53.6403 28.9385 52.9932 28.542C52.346 28.1455 51.8447 27.5804 51.4893 26.8467C51.1338 26.1084 50.9538 25.2607 50.9492 24.3037V23.8115C50.9492 22.8317 51.1247 21.9704 51.4756 21.2275C51.8311 20.4801 52.3301 19.9082 52.9727 19.5117C53.6198 19.1107 54.3581 18.9102 55.1875 18.9102C56.0169 18.9102 56.7529 19.1107 57.3955 19.5117C58.0426 19.9082 58.5417 20.4801 58.8926 21.2275C59.248 21.9704 59.4258 22.8294 59.4258 23.8047V24.249ZM57.3477 23.7979C57.3477 22.7542 57.1608 21.9613 56.7871 21.4189C56.4134 20.8766 55.8802 20.6055 55.1875 20.6055C54.4993 20.6055 53.9684 20.8743 53.5947 21.4121C53.221 21.9453 53.0319 22.7292 53.0273 23.7637V24.249C53.0273 25.2653 53.2142 26.0537 53.5879 26.6143C53.9616 27.1748 54.4993 27.4551 55.2012 27.4551C55.8893 27.4551 56.418 27.1862 56.7871 26.6484C57.1562 26.1061 57.3431 25.3177 57.3477 24.2832V23.7979ZM68.4492 19.0469V25.6025C68.4492 26.6917 68.1074 27.5531 67.4238 28.1865C66.7448 28.82 65.8151 29.1367 64.6348 29.1367C63.4727 29.1367 62.5498 28.8291 61.8662 28.2139C61.1826 27.5986 60.834 26.7533 60.8203 25.6777V19.0469H62.8711V25.6162C62.8711 26.2679 63.026 26.7441 63.3359 27.0449C63.6504 27.3411 64.0833 27.4893 64.6348 27.4893C65.7878 27.4893 66.3734 26.8831 66.3916 25.6709V19.0469H68.4492ZM77.623 20.708H74.5742V29H72.5234V20.708H69.5156V19.0469H77.623V20.708Z" fill="#AAAAAA"/>
</svg>
