<svg width="137" height="47" viewBox="0 0 137 47" fill="none" xmlns="http://www.w3.org/2000/svg">
<path d="M40.7021 25.6846C40.6247 26.7555 40.2282 27.5986 39.5127 28.2139C38.8018 28.8291 37.863 29.1367 36.6963 29.1367C35.4202 29.1367 34.4154 28.7083 33.6816 27.8516C32.9525 26.9902 32.5879 25.8099 32.5879 24.3105V23.7021C32.5879 22.7451 32.7565 21.902 33.0938 21.1729C33.431 20.4437 33.9118 19.8854 34.5361 19.498C35.165 19.1061 35.8942 18.9102 36.7236 18.9102C37.8721 18.9102 38.7972 19.2178 39.499 19.833C40.2008 20.4482 40.6064 21.3118 40.7158 22.4238H38.665C38.6149 21.7812 38.4349 21.3164 38.125 21.0293C37.8197 20.7376 37.3525 20.5918 36.7236 20.5918C36.04 20.5918 35.5273 20.8379 35.1855 21.3301C34.8483 21.8177 34.6751 22.5765 34.666 23.6064V24.3584C34.666 25.4339 34.8278 26.2201 35.1514 26.7168C35.4795 27.2135 35.9945 27.4619 36.6963 27.4619C37.3298 27.4619 37.8014 27.3184 38.1113 27.0312C38.4258 26.7396 38.6058 26.2907 38.6514 25.6846H40.7021ZM50.1494 29H48.0986V24.7344H44.0996V29H42.0488V19.0469H44.0996V23.0801H48.0986V19.0469H50.1494V29ZM57.6895 26.9492H54.0938L53.4102 29H51.2295L54.9346 19.0469H56.835L60.5605 29H58.3799L57.6895 26.9492ZM54.6475 25.2881H57.1357L55.8848 21.5625L54.6475 25.2881ZM69.584 29H67.5332L63.541 22.4512V29H61.4902V19.0469H63.541L67.54 25.6094V19.0469H69.584V29ZM79.4688 29H77.418L73.4258 22.4512V29H71.375V19.0469H73.4258L77.4248 25.6094V19.0469H79.4688V29ZM87.248 24.6865H83.3105V27.3525H87.9316V29H81.2598V19.0469H87.918V20.708H83.3105V23.0801H87.248V24.6865ZM91.1855 27.3525H95.54V29H89.1348V19.0469H91.1855V27.3525ZM101.884 26.3887C101.884 26.0013 101.747 25.7051 101.474 25.5C101.2 25.2904 100.708 25.0716 99.9971 24.8438C99.2861 24.6113 98.7233 24.3835 98.3086 24.1602C97.1784 23.5495 96.6133 22.7269 96.6133 21.6924C96.6133 21.1546 96.7637 20.6761 97.0645 20.2568C97.3698 19.833 97.805 19.5026 98.3701 19.2656C98.9398 19.0286 99.5778 18.9102 100.284 18.9102C100.995 18.9102 101.629 19.04 102.185 19.2998C102.741 19.555 103.171 19.9173 103.477 20.3867C103.786 20.8561 103.941 21.3893 103.941 21.9863H101.891C101.891 21.5306 101.747 21.1774 101.46 20.9268C101.173 20.6715 100.77 20.5439 100.25 20.5439C99.7487 20.5439 99.359 20.651 99.0811 20.8652C98.8031 21.0749 98.6641 21.3529 98.6641 21.6992C98.6641 22.0228 98.8258 22.2939 99.1494 22.5127C99.4775 22.7314 99.9583 22.9365 100.592 23.1279C101.758 23.4788 102.608 23.9141 103.142 24.4336C103.675 24.9531 103.941 25.6003 103.941 26.375C103.941 27.2363 103.616 27.9131 102.964 28.4053C102.312 28.8929 101.435 29.1367 100.332 29.1367C99.5664 29.1367 98.8691 28.9977 98.2402 28.7197C97.6113 28.4372 97.1305 28.0521 96.7979 27.5645C96.4697 27.0768 96.3057 26.5117 96.3057 25.8691H98.3633C98.3633 26.9674 99.0195 27.5166 100.332 27.5166C100.82 27.5166 101.2 27.4186 101.474 27.2227C101.747 27.0221 101.884 26.7441 101.884 26.3887Z" fill="#AAAAAA"/>
</svg>
