<svg width="148" height="47" viewBox="0 0 148 47" fill="none" xmlns="http://www.w3.org/2000/svg">
<path d="M40.7021 25.6846C40.6247 26.7555 40.2282 27.5986 39.5127 28.2139C38.8018 28.8291 37.863 29.1367 36.6963 29.1367C35.4202 29.1367 34.4154 28.7083 33.6816 27.8516C32.9525 26.9902 32.5879 25.8099 32.5879 24.3105V23.7021C32.5879 22.7451 32.7565 21.902 33.0938 21.1729C33.431 20.4437 33.9118 19.8854 34.5361 19.498C35.165 19.1061 35.8942 18.9102 36.7236 18.9102C37.8721 18.9102 38.7972 19.2178 39.499 19.833C40.2008 20.4482 40.6064 21.3118 40.7158 22.4238H38.665C38.6149 21.7812 38.4349 21.3164 38.125 21.0293C37.8197 20.7376 37.3525 20.5918 36.7236 20.5918C36.04 20.5918 35.5273 20.8379 35.1855 21.3301C34.8483 21.8177 34.6751 22.5765 34.666 23.6064V24.3584C34.666 25.4339 34.8278 26.2201 35.1514 26.7168C35.4795 27.2135 35.9945 27.4619 36.6963 27.4619C37.3298 27.4619 37.8014 27.3184 38.1113 27.0312C38.4258 26.7396 38.6058 26.2907 38.6514 25.6846H40.7021ZM50.2246 24.249C50.2246 25.2288 50.0514 26.0879 49.7051 26.8262C49.3587 27.5645 48.862 28.1341 48.2148 28.5352C47.5723 28.9362 46.834 29.1367 46 29.1367C45.1751 29.1367 44.4391 28.9385 43.792 28.542C43.1449 28.1455 42.6436 27.5804 42.2881 26.8467C41.9326 26.1084 41.7526 25.2607 41.748 24.3037V23.8115C41.748 22.8317 41.9235 21.9704 42.2744 21.2275C42.6299 20.4801 43.1289 19.9082 43.7715 19.5117C44.4186 19.1107 45.1569 18.9102 45.9863 18.9102C46.8158 18.9102 47.5518 19.1107 48.1943 19.5117C48.8415 19.9082 49.3405 20.4801 49.6914 21.2275C50.0469 21.9704 50.2246 22.8294 50.2246 23.8047V24.249ZM48.1465 23.7979C48.1465 22.7542 47.9596 21.9613 47.5859 21.4189C47.2122 20.8766 46.679 20.6055 45.9863 20.6055C45.2982 20.6055 44.7673 20.8743 44.3936 21.4121C44.0199 21.9453 43.8307 22.7292 43.8262 23.7637V24.249C43.8262 25.2653 44.013 26.0537 44.3867 26.6143C44.7604 27.1748 45.2982 27.4551 46 27.4551C46.6882 27.4551 47.2168 27.1862 47.5859 26.6484C47.9551 26.1061 48.1419 25.3177 48.1465 24.2832V23.7979ZM54.3945 19.0469L56.9512 26.2656L59.4941 19.0469H62.1875V29H60.1299V26.2793L60.335 21.583L57.6484 29H56.2402L53.5605 21.5898L53.7656 26.2793V29H51.7148V19.0469H54.3945ZM66.6582 19.0469L69.2148 26.2656L71.7578 19.0469H74.4512V29H72.3936V26.2793L72.5986 21.583L69.9121 29H68.5039L65.8242 21.5898L66.0293 26.2793V29H63.9785V19.0469H66.6582ZM83.7754 19.0469V25.6025C83.7754 26.6917 83.4336 27.5531 82.75 28.1865C82.071 28.82 81.1413 29.1367 79.9609 29.1367C78.7988 29.1367 77.876 28.8291 77.1924 28.2139C76.5088 27.5986 76.1602 26.7533 76.1465 25.6777V19.0469H78.1973V25.6162C78.1973 26.2679 78.3522 26.7441 78.6621 27.0449C78.9766 27.3411 79.4095 27.4893 79.9609 27.4893C81.1139 27.4893 81.6995 26.8831 81.7178 25.6709V19.0469H83.7754ZM93.5508 29H91.5L87.5078 22.4512V29H85.457V19.0469H87.5078L91.5068 25.6094V19.0469H93.5508V29ZM97.5225 29H95.4717V19.0469H97.5225V29ZM106.717 20.708H103.668V29H101.617V20.708H98.6094V19.0469H106.717V20.708ZM111.434 23.5312L113.505 19.0469H115.747L112.479 25.3906V29H110.395V25.3906L107.127 19.0469H109.376L111.434 23.5312Z" fill="#AAAAAA"/>
</svg>
