<svg width="104" height="48" viewBox="0 0 104 48" fill="none" xmlns="http://www.w3.org/2000/svg">
<path d="M40.9893 29H38.9385V24.7344H34.9395V29H32.8887V19.0469H34.9395V23.0801H38.9385V19.0469H40.9893V29ZM50.9629 24.249C50.9629 25.2288 50.7897 26.0879 50.4434 26.8262C50.097 27.5645 49.6003 28.1341 48.9531 28.5352C48.3105 28.9362 47.5723 29.1367 46.7383 29.1367C45.9134 29.1367 45.1774 28.9385 44.5303 28.542C43.8831 28.1455 43.3818 27.5804 43.0264 26.8467C42.6709 26.1084 42.4909 25.2607 42.4863 24.3037V23.8115C42.4863 22.8317 42.6618 21.9704 43.0127 21.2275C43.3682 20.4801 43.8672 19.9082 44.5098 19.5117C45.1569 19.1107 45.8952 18.9102 46.7246 18.9102C47.554 18.9102 48.29 19.1107 48.9326 19.5117C49.5798 19.9082 50.0788 20.4801 50.4297 21.2275C50.7852 21.9704 50.9629 22.8294 50.9629 23.8047V24.249ZM48.8848 23.7979C48.8848 22.7542 48.6979 21.9613 48.3242 21.4189C47.9505 20.8766 47.4173 20.6055 46.7246 20.6055C46.0365 20.6055 45.5055 20.8743 45.1318 21.4121C44.7581 21.9453 44.569 22.7292 44.5645 23.7637V24.249C44.5645 25.2653 44.7513 26.0537 45.125 26.6143C45.4987 27.1748 46.0365 27.4551 46.7383 27.4551C47.4264 27.4551 47.9551 27.1862 48.3242 26.6484C48.6934 26.1061 48.8802 25.3177 48.8848 24.2832V23.7979ZM55.1328 19.0469L57.6895 26.2656L60.2324 19.0469H62.9258V29H60.8682V26.2793L61.0732 21.583L58.3867 29H56.9785L54.2988 21.5898L54.5039 26.2793V29H52.4531V19.0469H55.1328ZM70.7051 24.6865H66.7676V27.3525H71.3887V29H64.7168V19.0469H71.375V20.708H66.7676V23.0801H70.7051V24.6865Z" fill="white"/>
<rect y="47" width="104" height="1" fill="#AAAAAA"/>
</svg>
