<svg width="136" height="47" viewBox="0 0 136 47" fill="none" xmlns="http://www.w3.org/2000/svg">
<path d="M34.9395 25.4932V29H32.8887V19.0469H36.7715C37.5189 19.0469 38.1751 19.1836 38.7402 19.457C39.3099 19.7305 39.7474 20.1201 40.0527 20.626C40.3581 21.1273 40.5107 21.6992 40.5107 22.3418C40.5107 23.3171 40.1758 24.0872 39.5059 24.6523C38.8405 25.2129 37.9176 25.4932 36.7373 25.4932H34.9395ZM34.9395 23.832H36.7715C37.3138 23.832 37.7262 23.7044 38.0088 23.4492C38.2959 23.194 38.4395 22.8294 38.4395 22.3555C38.4395 21.8678 38.2959 21.4736 38.0088 21.1729C37.7217 20.8721 37.3252 20.7171 36.8193 20.708H34.9395V23.832ZM43.9766 27.3525H48.3311V29H41.9258V19.0469H43.9766V27.3525ZM55.2695 26.9492H51.6738L50.9902 29H48.8096L52.5146 19.0469H54.415L58.1406 29H55.96L55.2695 26.9492ZM52.2275 25.2881H54.7158L53.4648 21.5625L52.2275 25.2881ZM61.4766 23.5312L63.5479 19.0469H65.79L62.5225 25.3906V29H60.4375V25.3906L57.1699 19.0469H59.4189L61.4766 23.5312ZM68.75 27.3525H73.1045V29H66.6992V19.0469H68.75V27.3525ZM76.4678 29H74.417V19.0469H76.4678V29ZM83.5361 26.3887C83.5361 26.0013 83.3994 25.7051 83.126 25.5C82.8525 25.2904 82.3604 25.0716 81.6494 24.8438C80.9385 24.6113 80.3757 24.3835 79.9609 24.1602C78.8307 23.5495 78.2656 22.7269 78.2656 21.6924C78.2656 21.1546 78.416 20.6761 78.7168 20.2568C79.0221 19.833 79.4574 19.5026 80.0225 19.2656C80.5921 19.0286 81.2301 18.9102 81.9365 18.9102C82.6475 18.9102 83.2809 19.04 83.8369 19.2998C84.3929 19.555 84.8236 19.9173 85.1289 20.3867C85.4388 20.8561 85.5938 21.3893 85.5938 21.9863H83.543C83.543 21.5306 83.3994 21.1774 83.1123 20.9268C82.8252 20.6715 82.4219 20.5439 81.9023 20.5439C81.401 20.5439 81.0114 20.651 80.7334 20.8652C80.4554 21.0749 80.3164 21.3529 80.3164 21.6992C80.3164 22.0228 80.4782 22.2939 80.8018 22.5127C81.1299 22.7314 81.6107 22.9365 82.2441 23.1279C83.4108 23.4788 84.2607 23.9141 84.7939 24.4336C85.3271 24.9531 85.5938 25.6003 85.5938 26.375C85.5938 27.2363 85.2679 27.9131 84.6162 28.4053C83.9645 28.8929 83.0872 29.1367 81.9844 29.1367C81.2188 29.1367 80.5215 28.9977 79.8926 28.7197C79.2637 28.4372 78.7829 28.0521 78.4502 27.5645C78.1221 27.0768 77.958 26.5117 77.958 25.8691H80.0156C80.0156 26.9674 80.6719 27.5166 81.9844 27.5166C82.472 27.5166 82.8525 27.4186 83.126 27.2227C83.3994 27.0221 83.5361 26.7441 83.5361 26.3887ZM94.4805 20.708H91.4316V29H89.3809V20.708H86.373V19.0469H94.4805V20.708ZM100.708 26.3887C100.708 26.0013 100.571 25.7051 100.298 25.5C100.024 25.2904 99.5322 25.0716 98.8213 24.8438C98.1104 24.6113 97.5475 24.3835 97.1328 24.1602C96.0026 23.5495 95.4375 22.7269 95.4375 21.6924C95.4375 21.1546 95.5879 20.6761 95.8887 20.2568C96.194 19.833 96.6292 19.5026 97.1943 19.2656C97.764 19.0286 98.402 18.9102 99.1084 18.9102C99.8193 18.9102 100.453 19.04 101.009 19.2998C101.565 19.555 101.995 19.9173 102.301 20.3867C102.611 20.8561 102.766 21.3893 102.766 21.9863H100.715C100.715 21.5306 100.571 21.1774 100.284 20.9268C99.9971 20.6715 99.5938 20.5439 99.0742 20.5439C98.5729 20.5439 98.1833 20.651 97.9053 20.8652C97.6273 21.0749 97.4883 21.3529 97.4883 21.6992C97.4883 22.0228 97.6501 22.2939 97.9736 22.5127C98.3018 22.7314 98.7826 22.9365 99.416 23.1279C100.583 23.4788 101.433 23.9141 101.966 24.4336C102.499 24.9531 102.766 25.6003 102.766 26.375C102.766 27.2363 102.44 27.9131 101.788 28.4053C101.136 28.8929 100.259 29.1367 99.1562 29.1367C98.3906 29.1367 97.6934 28.9977 97.0645 28.7197C96.4355 28.4372 95.9548 28.0521 95.6221 27.5645C95.2939 27.0768 95.1299 26.5117 95.1299 25.8691H97.1875C97.1875 26.9674 97.8438 27.5166 99.1562 27.5166C99.6439 27.5166 100.024 27.4186 100.298 27.2227C100.571 27.0221 100.708 26.7441 100.708 26.3887Z" fill="#AAAAAA"/>
</svg>
