<svg width="113" height="47" viewBox="0 0 113 47" fill="none" xmlns="http://www.w3.org/2000/svg">
<path d="M36.5664 26.5322L38.8223 19.0469H41.1055L37.6396 29H35.5L32.0479 19.0469H34.3242L36.5664 26.5322ZM44.2295 29H42.1787V19.0469H44.2295V29ZM46.1367 29V19.0469H49.1992C50.0742 19.0469 50.8558 19.2451 51.5439 19.6416C52.2367 20.0335 52.7767 20.5941 53.1641 21.3232C53.5514 22.0479 53.7451 22.8727 53.7451 23.7979V24.2559C53.7451 25.181 53.5537 26.0036 53.1709 26.7236C52.7926 27.4437 52.2572 28.002 51.5645 28.3984C50.8717 28.7949 50.0902 28.9954 49.2197 29H46.1367ZM48.1875 20.708V27.3525H49.1787C49.9808 27.3525 50.5938 27.0905 51.0176 26.5664C51.4414 26.0423 51.6579 25.2926 51.667 24.3174V23.791C51.667 22.7793 51.4574 22.0137 51.0381 21.4941C50.6188 20.9701 50.0059 20.708 49.1992 20.708H48.1875ZM61.2305 24.6865H57.293V27.3525H61.9141V29H55.2422V19.0469H61.9004V20.708H57.293V23.0801H61.2305V24.6865ZM71.293 24.249C71.293 25.2288 71.1198 26.0879 70.7734 26.8262C70.4271 27.5645 69.9303 28.1341 69.2832 28.5352C68.6406 28.9362 67.9023 29.1367 67.0684 29.1367C66.2435 29.1367 65.5075 28.9385 64.8604 28.542C64.2132 28.1455 63.7119 27.5804 63.3564 26.8467C63.001 26.1084 62.821 25.2607 62.8164 24.3037V23.8115C62.8164 22.8317 62.9919 21.9704 63.3428 21.2275C63.6982 20.4801 64.1973 19.9082 64.8398 19.5117C65.487 19.1107 66.2253 18.9102 67.0547 18.9102C67.8841 18.9102 68.6201 19.1107 69.2627 19.5117C69.9098 19.9082 70.4089 20.4801 70.7598 21.2275C71.1152 21.9704 71.293 22.8294 71.293 23.8047V24.249ZM69.2148 23.7979C69.2148 22.7542 69.028 21.9613 68.6543 21.4189C68.2806 20.8766 67.7474 20.6055 67.0547 20.6055C66.3665 20.6055 65.8356 20.8743 65.4619 21.4121C65.0882 21.9453 64.8991 22.7292 64.8945 23.7637V24.249C64.8945 25.2653 65.0814 26.0537 65.4551 26.6143C65.8288 27.1748 66.3665 27.4551 67.0684 27.4551C67.7565 27.4551 68.2852 27.1862 68.6543 26.6484C69.0234 26.1061 69.2103 25.3177 69.2148 24.2832V23.7979ZM77.9443 26.3887C77.9443 26.0013 77.8076 25.7051 77.5342 25.5C77.2607 25.2904 76.7686 25.0716 76.0576 24.8438C75.3467 24.6113 74.7839 24.3835 74.3691 24.1602C73.2389 23.5495 72.6738 22.7269 72.6738 21.6924C72.6738 21.1546 72.8242 20.6761 73.125 20.2568C73.4303 19.833 73.8656 19.5026 74.4307 19.2656C75.0003 19.0286 75.6383 18.9102 76.3447 18.9102C77.0557 18.9102 77.6891 19.04 78.2451 19.2998C78.8011 19.555 79.2318 19.9173 79.5371 20.3867C79.847 20.8561 80.002 21.3893 80.002 21.9863H77.9512C77.9512 21.5306 77.8076 21.1774 77.5205 20.9268C77.2334 20.6715 76.8301 20.5439 76.3105 20.5439C75.8092 20.5439 75.4196 20.651 75.1416 20.8652C74.8636 21.0749 74.7246 21.3529 74.7246 21.6992C74.7246 22.0228 74.8864 22.2939 75.21 22.5127C75.5381 22.7314 76.0189 22.9365 76.6523 23.1279C77.819 23.4788 78.6689 23.9141 79.2021 24.4336C79.7354 24.9531 80.002 25.6003 80.002 26.375C80.002 27.2363 79.6761 27.9131 79.0244 28.4053C78.3727 28.8929 77.4954 29.1367 76.3926 29.1367C75.627 29.1367 74.9297 28.9977 74.3008 28.7197C73.6719 28.4372 73.1911 28.0521 72.8584 27.5645C72.5303 27.0768 72.3662 26.5117 72.3662 25.8691H74.4238C74.4238 26.9674 75.0801 27.5166 76.3926 27.5166C76.8802 27.5166 77.2607 27.4186 77.5342 27.2227C77.8076 27.0221 77.9443 26.7441 77.9443 26.3887Z" fill="#AAAAAA"/>
</svg>
